<?xml version="1.0" encoding="UTF-8"?>
<!DOCTYPE svg PUBLIC "-//W3C//DTD SVG 1.1//EN" "http://www.w3.org/Graphics/SVG/1.1/DTD/svg11.dtd">
<!-- Creator: CorelDRAW 2021 (64 Bit) -->
<svg xmlns="http://www.w3.org/2000/svg" xml:space="preserve" width="45mm" height="52.229mm" version="1.1" style="shape-rendering:geometricPrecision; text-rendering:geometricPrecision; image-rendering:optimizeQuality; fill-rule:evenodd; clip-rule:evenodd"
viewBox="0 0 472.04 547.87"
 xmlns:xlink="http://www.w3.org/1999/xlink"
 xmlns:xodm="http://www.corel.com/coreldraw/odm/2003">
 <defs>
  <style type="text/css">
   <![CDATA[
    .fil2 {fill:#003664}
    .fil0 {fill:#004581}
    .fil1 {fill:#E5B200}
   ]]>
  </style>
 </defs>
 <g id="Camada_x0020_1">
  <metadata id="CorelCorpID_0Corel-Layer"/>
  <g id="_2553805066912">
   <path class="fil0" d="M60.91 545.52l20.79 -0.01 0 -36.95c0,-2.05 -0.01,-4.11 -0.06,-6.16 -0.04,-1.91 -0.32,-3.95 -0.31,-5.76 1.25,2.61 1.53,6.21 4.91,12.93l18.03 35.94 20.97 -0.01 -0 -82.58 -20.91 0.01 0 36.91c0,4.02 0.38,8.11 0.37,11.96 -0.28,-0.42 -0.16,-0.16 -0.38,-0.78l-1.82 -6.03c-0.84,-2.36 -1.77,-4.06 -2.79,-6.14 -2,-4.07 -3.97,-7.97 -6.01,-12.05l-11.91 -23.93 -20.88 0 0 82.64z"/>
   <path class="fil0" d="M409.41 483.04c2.34,-0.35 8.2,-0.13 10.78,-0.03 3.7,0.15 6.36,0.67 7.63,3.27 1.14,2.34 1.17,6.75 -0.09,9 -1.32,2.34 -3.92,3.14 -7.54,3.14l-10.78 -0.07 0 -15.31zm28.67 24.07c6.17,-3.38 10.27,-8.65 10.81,-18.3 0.54,-9.63 -2.07,-17.56 -7.75,-21.38 -6.33,-4.26 -15.7,-4.56 -24.56,-4.56 -2.35,0 -27.18,-0.17 -28.82,0.08l-0 82.63 21.63 0.01 -0 -28.49c2.83,-0.16 9.25,-0.26 11.86,0.16 3.62,0.59 5.48,2.37 6.28,5.86 1.27,5.48 -0.27,17.45 1.8,22.47l22.09 -0.01 0 -2.81c-0.45,-0.83 -0.96,-0.42 -1.42,-1.75 -2.23,-6.51 2.47,-26.03 -7.85,-32.11 -1.77,-1.04 -3.57,-1.45 -4.07,-1.8z"/>
   <path class="fil0" d="M158.99 547.87l4.36 0c0.99,-0.35 4.38,-0.61 5.96,-1.01 1.89,-0.48 3.42,-1.12 5.06,-1.93 1.81,-0.9 2.81,-1.67 4.26,-2.76 1.7,-1.27 2.88,-3.04 3.58,-3.55l1.12 6.87 14.14 0.05 0 -45.26c-2.57,-0.25 -28.74,-0.28 -30.03,0.08l0 17.43 9.82 0.08c-1.43,9.27 -11.61,12.05 -18.03,8.78 -6.24,-3.18 -7.53,-12.72 -7.6,-21.49 -0.08,-8.86 1.54,-18.31 7.02,-22.08 5.25,-3.61 13.12,-2.1 16.23,5.61 0.32,0.79 0.45,2.19 1.17,2.71l20.57 -0c-1.27,-14.24 -8.67,-26.18 -22.27,-29.6 -1.74,-0.44 -5.13,-0.67 -6.33,-1.05l-6.17 0c-2.46,0.97 -14.83,0.09 -24.15,13.07 -10.88,15.15 -10.58,44 -1.56,59.56l2.87 4.14c3.05,3.87 7.34,7.11 12.25,8.79 1.19,0.41 2.43,0.72 3.7,0.96 1.11,0.21 3.18,0.28 4.03,0.59z"/>
   <path class="fil0" d="M22.48 482.69c4.16,0 30.89,0.28 32.58,-0.12l0 -19.7 -54.61 -0 -0.01 82.71 56 0 -0.02 -20.14 -33.89 0c-0.27,-1.11 -0.22,-11.27 -0.06,-12.8l27.57 -0.01 0 -18.96 -27.63 0 0.06 -10.99z"/>
   <path class="fil0" d="M226.11 482.69l32.65 -0 0 -19.82 -54.64 0.02 0 82.69 55.97 0 0 -20.14 -34.02 -0.04 0.03 -12.69c4.8,-0.67 24.82,0.55 27.61,-0.19l0 -18.83 -27.65 -0.09 0.03 -10.9z"/>
   <path class="fil0" d="M286.57 500l-0.07 -16.83c4.15,0 9.08,-0.25 13.03,0.51 4.17,0.8 5.48,3.25 5.51,7.88 0.07,10.12 -8.67,8.44 -18.48,8.44zm-22.01 45.53c5.33,0 17.36,0.21 21.93,-0.04l-0 -25.24 14.08 0c4.2,0 8.43,-0.9 11.78,-2.46 10.93,-5.08 14.19,-16.66 13.49,-29.21 -0.51,-8.99 -4.08,-15.86 -8.78,-19.68 -5.81,-4.73 -13.3,-6.02 -22.66,-6.02l-29.85 0 0 82.66z"/>
   <path class="fil0" d="M352.07 488.84l6.85 28.34 -13.72 0.09 6.87 -28.43zm-35.09 56.63l21.57 0.06 2.62 -10.92 21.44 -0.02c0.98,0.27 1.96,8.94 2.98,10.89l21.66 0.06 -24.02 -82.64 -21.86 -0.02c-0.65,0.15 -0.57,0.77 -1,2.2l-5.32 18.27c-2.09,6.91 -3.95,13.84 -6.02,20.74 -2.06,6.83 -4.16,13.85 -6.04,20.74 -1.87,6.87 -4.33,13.85 -6,20.66z"/>
   <path class="fil0" d="M-0 91.7l0 237.38c3.23,8.14 2.45,42.57 33.71,67.22 34.61,27.29 65.99,24.36 74.32,28.56l101.3 0 0 -123.31c-9.83,-0.03 -87.95,1.26 -93.5,-0.83 -17.48,-6.58 -13.49,-38.09 -1.79,-40.85 4.64,-1.09 80.15,0.48 94.65,-0.41 1.58,-5.39 1.53,-88.76 -0.04,-94.01 -20.03,-1.63 -85.05,1.1 -93.64,-0.3 -13.11,-2.13 -16.74,-33.81 0.1,-40.66 5.43,-2.21 23.67,-1.14 31.02,-1.14 20.94,0.01 42.26,0.38 63.16,-0.08l0 -123.26 -101.15 0c-8.67,4.29 -36.51,1.01 -72.56,27.28 -19.3,14.06 -29.44,35.86 -34.07,59.13l-1.48 5.3z"/>
   <path class="fil1" d="M236.62 424.86l93.38 0c2.92,-0.98 12.92,-1.6 17.02,-2.28 15.88,-2.61 32.94,-7.05 46.46,-14.61 47.53,-26.57 52.36,-60.38 52.37,-110.57l0.01 -162.69c0,-28.33 0.79,-48.89 -9.25,-72.87 -12.52,-29.9 -38.42,-45.68 -67.44,-54.85 -13.66,-4.32 -30.18,-5.41 -34.2,-6.99l-98.35 0 -0.01 122.98c15.8,2.09 45.6,0.31 62.88,0.29 7.94,-0.01 24.18,-1.47 30.33,0.82 7.31,2.72 11.99,10.2 12.16,19.96 0.16,9.32 -3.88,19.18 -10.03,20.9 -7.92,2.23 -80.74,-2.23 -95.34,0.96l-0.23 93.03c16.32,3.37 76.62,-1.33 94.02,0.58 7.43,0.81 11.09,10.79 11.54,20.28 1.31,28.09 -28.04,21.8 -41.42,21.78 -17.32,-0.02 -48.18,-1.86 -63.91,0.29l0.02 122.97z"/>
   <path class="fil2" d="M455.24 470.74c-0.83,-10.34 13.94,-11.59 15.31,-1.92 0.65,4.58 -2.82,8.16 -6.8,8.7 -4.35,0.59 -8.21,-3.02 -8.52,-6.78zm16.8 0.34l0 -10.32 -10.92 0c-0.71,0.34 -1.57,0.48 -2.38,0.91 -10.39,5.6 -3.24,20.91 7.69,16.65 1.67,-0.65 2.79,-1.69 3.67,-2.73 0.88,-1.04 1.51,-2.62 1.94,-4.51z"/>
   <path class="fil2" d="M463.89 470.34c1.36,-0.28 2.09,-0.61 2.51,-1.66 0.51,-1.26 0.06,-2.47 -0.67,-3.11 -1.29,-1.12 -5.27,-0.81 -7.27,-0.67l0.04 10.07 1.35 -0.09 0.01 -4.36c2.49,0 2.71,-0.1 3.76,1.41 0.74,1.06 1.32,2.06 2.01,3.06l1.69 -0.06c-0.42,-1.38 -2.25,-3.91 -3.42,-4.59z"/>
  </g>
 </g>
</svg>
